<?xml version="1.0" encoding="UTF-8" standalone="no"?>
<!-- Created with Inkscape (http://www.inkscape.org/) -->

<svg
   width="133.22673mm"
   height="13.500389mm"
   viewBox="0 0 133.22673 13.500389"
   version="1.1"
   id="svg5"
   inkscape:version="1.2.1 (9c6d41e410, 2022-07-14)"
   sodipodi:docname="Media Buttons.svg"
   xmlns:inkscape="http://www.inkscape.org/namespaces/inkscape"
   xmlns:sodipodi="http://sodipodi.sourceforge.net/DTD/sodipodi-0.dtd"
   xmlns="http://www.w3.org/2000/svg"
   xmlns:svg="http://www.w3.org/2000/svg">
  <sodipodi:namedview
     id="namedview7"
     pagecolor="#ffffff"
     bordercolor="#000000"
     borderopacity="0.25"
     inkscape:showpageshadow="2"
     inkscape:pageopacity="0.0"
     inkscape:pagecheckerboard="0"
     inkscape:deskcolor="#d1d1d1"
     inkscape:document-units="mm"
     showgrid="false"
     inkscape:zoom="3.6596241"
     inkscape:cx="331.18156"
     inkscape:cy="28.691472"
     inkscape:window-width="1920"
     inkscape:window-height="1009"
     inkscape:window-x="-8"
     inkscape:window-y="-8"
     inkscape:window-maximized="1"
     inkscape:current-layer="layer1" />
  <defs
     id="defs2">
    <inkscape:perspective
       sodipodi:type="inkscape:persp3d"
       inkscape:vp_x="0 : 141.92804 : 1"
       inkscape:vp_y="0 : 999.99996 : 0"
       inkscape:vp_z="209.99998 : 141.92804 : 1"
       inkscape:persp3d-origin="104.99999 : 92.428047 : 1"
       id="perspective554" />
  </defs>
  <g
     inkscape:label="Capa 1"
     inkscape:groupmode="layer"
     id="layer1"
     transform="translate(-15.289042,-48.375622)">
    <rect
       style="fill:#000000;stroke-width:0.252332"
       id="rect111-41-7"
       width="13.5"
       height="13.5"
       x="54.395409"
       y="48.375622"
       inkscape:export-filename="stop.png"
       inkscape:export-xdpi="96"
       inkscape:export-ydpi="96" />
    <g
       id="g254"
       inkscape:export-filename="pause.png"
       inkscape:export-xdpi="96"
       inkscape:export-ydpi="96"
       transform="translate(8.486314)">
      <rect
         style="fill:#000000;stroke-width:0.133498"
         id="rect111-41"
         width="3.7786474"
         height="13.5"
         x="26.226936"
         y="48.376011" />
      <rect
         style="fill:#000000;stroke-width:0.133498"
         id="rect111-41-3"
         width="3.7786474"
         height="13.5"
         x="34.227238"
         y="48.375622" />
    </g>
    <path
       sodipodi:type="star"
       style="fill:#000000;stroke-width:0.264583"
       id="path250"
       inkscape:flatsided="false"
       sodipodi:sides="3"
       sodipodi:cx="58.918537"
       sodipodi:cy="48.642941"
       sodipodi:r1="3.0417812"
       sodipodi:r2="1.5208904"
       sodipodi:arg1="0"
       sodipodi:arg2="1.0471976"
       inkscape:rounded="0"
       inkscape:randomized="0"
       d="m 61.960318,48.642941 -2.281336,1.317129 -2.281335,1.31713 0,-2.63426 0,-2.634259 2.281335,1.31713 z"
       inkscape:transform-center-x="-1.9757422"
       transform="matrix(2.5981367,0,0,2.5623897,-133.83789,-69.516548)"
       inkscape:transform-center-y="2.8288438e-06"
       inkscape:export-filename="play.png"
       inkscape:export-xdpi="96"
       inkscape:export-ydpi="96" />
    <g
       id="g923">
      <rect
         style="fill:#000000;stroke-width:0.133498"
         id="rect111-41-8"
         width="3.7786474"
         height="13.5"
         x="105.67445"
         y="48.375626" />
      <path
         sodipodi:type="star"
         style="fill:#000000;stroke-width:0.264583"
         id="path250-1"
         inkscape:flatsided="false"
         sodipodi:sides="3"
         sodipodi:cx="58.918537"
         sodipodi:cy="48.642941"
         sodipodi:r1="3.0417812"
         sodipodi:r2="1.5208904"
         sodipodi:arg1="0"
         sodipodi:arg2="1.0471976"
         inkscape:rounded="0"
         inkscape:randomized="0"
         d="m 61.960318,48.642941 -2.281336,1.317129 -2.281335,1.31713 0,-2.63426 0,-2.634259 2.281335,1.31713 z"
         inkscape:transform-center-x="-1.3963534"
         transform="matrix(1.8362319,0,0,2.5623897,-9.431891,-69.516548)"
         inkscape:transform-center-y="2.8288438e-06"
         inkscape:export-filename="play.png"
         inkscape:export-xdpi="96"
         inkscape:export-ydpi="96" />
    </g>
    <g
       id="g625"
       transform="translate(14.21202)"
       inkscape:export-filename="beginning.png"
       inkscape:export-xdpi="96"
       inkscape:export-ydpi="96">
      <rect
         style="fill:#000000;stroke-width:0.133498"
         id="rect111-41-8-5"
         width="3.7786474"
         height="13.5"
         x="-64.718903"
         y="48.375622"
         transform="scale(-1,1)" />
      <path
         sodipodi:type="star"
         style="fill:#000000;stroke-width:0.264583"
         id="path250-1-5"
         inkscape:flatsided="false"
         sodipodi:sides="3"
         sodipodi:cx="58.918537"
         sodipodi:cy="48.642941"
         sodipodi:r1="3.0417812"
         sodipodi:r2="1.5208904"
         sodipodi:arg1="0"
         sodipodi:arg2="1.0471976"
         inkscape:rounded="0"
         inkscape:randomized="0"
         d="m 61.960318,48.642941 -2.281336,1.317129 -2.281335,1.31713 0,-2.63426 0,-2.634259 2.281335,1.31713 z"
         inkscape:transform-center-x="1.3963512"
         transform="matrix(-1.8362319,0,0,2.5623897,179.82525,-69.516547)"
         inkscape:transform-center-y="2.8288438e-06"
         inkscape:export-filename="play.png"
         inkscape:export-xdpi="96"
         inkscape:export-ydpi="96" />
    </g>
    <g
       id="g945"
       inkscape:export-filename="snapshot_end.png"
       inkscape:export-xdpi="96"
       inkscape:export-ydpi="96">
      <path
         id="rect111-41-7-8"
         style="fill:#000000;stroke-width:0.252333"
         d="m 115.84147,48.375622 v 13.499951 h 13.49995 V 48.375622 Z m 0.50023,0.500228 h 12.50001 V 61.375862 H 116.3417 Z" />
      <path
         id="path582"
         style="fill:#000000;stroke-width:0.264583"
         d="m 122.52919,50.225638 a 5,5 0 0 0 -5.00022,5.000212 5,5 0 0 0 5.00022,5.000211 5,5 0 0 0 4.99969,-5.000211 5,5 0 0 0 -4.99969,-5.000212 z m -5.2e-4,0.500228 a 4.5,4.5 0 0 1 4.49998,4.499984 4.5,4.5 0 0 1 -4.49998,4.499984 4.5,4.5 0 0 1 -4.49999,-4.499984 4.5,4.5 0 0 1 4.49999,-4.499984 z" />
      <path
         id="path616"
         style="fill:#000000;stroke-width:0.416941"
         d="M 122.52952 51.225577 A 4 4 0 0 0 118.52925 55.22585 A 4 4 0 0 0 122.52952 59.225605 A 4 4 0 0 0 126.52928 55.22585 A 4 4 0 0 0 122.52952 51.225577 z M 121.39988 52.674067 L 123.05869 53.949958 L 124.71699 55.22585 L 123.05869 56.501741 L 121.39988 57.777632 L 121.39988 55.22585 L 121.39988 52.674067 z " />
    </g>
    <g
       id="g955"
       inkscape:export-filename="snapshot_end.png"
       inkscape:export-xdpi="96"
       inkscape:export-ydpi="96">
      <path
         id="rect111-41-7-8-5"
         style="fill:#000000;stroke-width:0.252333"
         d="m 135.01582,48.375622 v 13.499951 h 13.49995 V 48.375622 Z m 0.50023,0.500228 h 12.50001 v 12.500012 h -12.50001 z" />
      <path
         id="path582-9"
         style="fill:#000000;stroke-width:0.264583"
         d="m 141.70354,50.225638 a 5,5 0 0 0 -5.00022,5.000212 5,5 0 0 0 5.00022,5.000211 5,5 0 0 0 4.99969,-5.000211 5,5 0 0 0 -4.99969,-5.000212 z m -5.2e-4,0.500228 a 4.5,4.5 0 0 1 4.49998,4.499984 4.5,4.5 0 0 1 -4.49998,4.499984 4.5,4.5 0 0 1 -4.49999,-4.499984 4.5,4.5 0 0 1 4.49999,-4.499984 z" />
      <path
         id="path616-4"
         style="fill:#000000;stroke-width:0.416941"
         d="M 141.70406 51.225577 A 4 4 0 0 0 137.70379 55.22585 A 4 4 0 0 0 141.70406 59.225605 A 4 4 0 0 0 145.70382 55.22585 A 4 4 0 0 0 141.70406 51.225577 z M 142.78565 52.674067 L 142.78565 55.22585 L 142.78565 57.777632 L 141.12736 56.501741 L 139.46854 55.22585 L 141.12736 53.949958 L 142.78565 52.674067 z " />
    </g>
  </g>
</svg>
